<svg version="1.0" xmlns="http://www.w3.org/2000/svg"
 width="512.000000pt" height="512.000000pt" viewBox="0 0 512.000000 512.000000"
 preserveAspectRatio="xMidYMid meet">

<g transform="translate(0.000000,512.000000) scale(0.100000,-0.100000)"
fill="#d3b6a9" stroke="none">
<path d="M1677 5104 c-32 -7 -83 -26 -115 -41 -77 -37 -190 -150 -225 -225
l-26 -57 -263 -3 c-248 -3 -265 -4 -304 -25 -44 -24 -108 -89 -118 -121 -7
-19 -16 -20 -219 -24 -241 -4 -272 -11 -338 -85 -75 -83 -69 103 -67 -2238 l3
-2100 22 -40 c25 -47 74 -95 123 -121 34 -18 96 -19 1620 -22 1300 -2 1592 0
1630 11 38 11 61 11 130 1 105 -16 500 -18 607 -3 154 21 282 67 415 148 89
54 203 149 266 221 149 171 255 405 287 634 17 121 20 587 4 686 -41 258 -211
496 -432 605 -133 66 -177 76 -370 82 -196 6 -261 -4 -343 -53 -29 -18 -54
-29 -54 -26 1 25 33 154 50 199 63 168 191 326 353 434 97 65 117 87 117 128
-1 45 -19 69 -59 81 -26 7 -41 4 -86 -20 -173 -91 -366 -298 -451 -484 -14
-32 -29 -54 -33 -49 -4 4 -16 28 -26 53 -28 66 -97 169 -149 220 l-46 44 0
751 c0 837 3 790 -71 864 -68 68 -100 76 -331 79 l-207 3 -26 44 c-14 25 -41
56 -60 71 -63 47 -107 54 -369 54 l-241 0 -34 66 c-105 202 -343 312 -564 258z
m192 -165 c111 -23 210 -117 246 -233 9 -28 28 -61 41 -73 25 -23 29 -23 300
-23 317 0 335 -3 354 -67 8 -25 11 -101 8 -215 -3 -171 -4 -177 -27 -202 l-24
-26 -974 0 -974 0 -24 25 c-25 24 -25 25 -25 228 l0 204 26 24 26 24 293 5
c339 6 320 0 356 109 18 54 34 77 84 128 50 50 73 65 126 82 74 23 117 25 188
10z m-1269 -583 l0 -83 -69 -6 c-102 -8 -145 -35 -176 -110 -13 -32 -15 -241
-15 -1852 0 -1611 2 -1820 15 -1852 21 -50 42 -72 90 -94 38 -18 97 -19 1248
-19 l1207 0 59 -54 c33 -30 78 -67 100 -82 23 -14 41 -28 41 -30 0 -2 -646 -4
-1436 -4 l-1436 0 -29 29 -29 29 0 2069 c0 1639 3 2073 13 2093 22 44 49 50
240 50 l177 0 0 -84z m2784 55 l26 -24 0 -685 c0 -648 -1 -684 -17 -677 -10 4
-48 14 -85 23 l-68 16 0 533 c0 428 -3 540 -14 566 -27 66 -102 107 -193 107
l-43 0 0 86 0 85 184 -3 c179 -3 185 -4 210 -27z m-2760 -340 c28 -53 70 -94
121 -117 l50 -24 1000 0 c947 0 1002 1 1040 19 43 19 119 95 130 130 5 18 14
21 56 21 l49 0 0 -513 0 -513 -73 -11 c-40 -5 -89 -18 -109 -27 -55 -26 -63
-57 -62 -231 1 -134 4 -159 27 -231 28 -83 85 -181 131 -223 14 -14 26 -28 26
-32 0 -4 -26 -24 -59 -43 -170 -104 -307 -288 -363 -491 -21 -75 -22 -100 -23
-415 0 -291 2 -346 19 -420 26 -121 70 -240 127 -347 l49 -93 -1125 0 -1125 0
0 1788 c0 984 3 1792 7 1795 3 4 26 7 49 7 38 0 45 -4 58 -29z m2650 -1187
c209 -54 336 -204 390 -460 12 -59 12 -64 -3 -60 -63 20 -126 26 -266 26 -139
0 -166 3 -205 21 -127 57 -199 202 -200 401 l0 77 33 4 c80 10 194 6 251 -9z
m307 -674 c48 -14 127 -84 150 -135 12 -26 19 -64 19 -110 0 -103 14 -142 56
-162 31 -16 37 -16 68 0 42 20 56 59 56 162 0 46 7 84 19 110 25 55 99 121
153 135 59 17 337 7 399 -13 98 -32 174 -79 250 -156 85 -85 125 -149 166
-266 l28 -80 0 -330 c-1 -324 -1 -332 -27 -426 -59 -216 -148 -370 -296 -510
-142 -134 -294 -212 -479 -244 -117 -21 -489 -21 -606 0 -185 32 -337 110
-479 244 -148 140 -238 294 -296 510 -25 94 -26 104 -26 416 -1 359 2 384 72
525 27 55 58 96 117 156 102 102 187 148 330 178 42 8 292 5 326 -4z"/>
<path d="M994 4430 c-55 -22 -70 -95 -29 -135 21 -22 33 -25 98 -25 93 0 127
21 127 78 -1 44 -16 67 -54 82 -32 12 -112 12 -142 0z"/>
<path d="M1421 4429 c-35 -14 -50 -39 -51 -81 0 -28 6 -41 26 -57 26 -21 35
-21 614 -21 l587 0 21 23 c23 25 29 75 12 107 -5 10 -24 23 -41 29 -41 14
-1133 14 -1168 0z"/>
<path d="M785 3651 c-87 -40 -104 -86 -104 -281 0 -195 17 -241 104 -281 59
-27 331 -27 390 0 46 21 79 54 94 94 14 37 14 337 0 374 -14 38 -57 83 -96 99
-23 10 -78 14 -190 14 -132 0 -165 -3 -198 -19z m325 -281 l0 -131 -127 3
-128 3 -3 128 -3 127 131 0 130 0 0 -130z"/>
<path d="M1482 3390 c-44 -41 -35 -110 18 -137 39 -20 1217 -19 1265 1 53 22
64 89 22 134 l-20 22 -632 0 c-620 0 -632 0 -653 -20z"/>
<path d="M785 2886 c-42 -18 -82 -68 -96 -118 -6 -25 -9 -102 -7 -192 3 -137
5 -154 26 -188 42 -68 79 -82 224 -86 222 -7 282 11 326 98 20 40 22 58 22
206 0 149 -2 164 -23 204 -16 30 -37 51 -67 67 -40 21 -55 23 -209 23 -115 -1
-175 -5 -196 -14z m323 -283 l-3 -128 -125 0 -125 0 -3 128 -3 127 131 0 131
0 -3 -127z"/>
<path d="M1512 2639 c-23 -7 -38 -20 -49 -44 -16 -32 -16 -37 0 -69 12 -26 26
-37 54 -45 24 -7 207 -11 498 -11 418 0 463 2 495 18 20 10 39 29 44 45 14 40
-3 79 -44 99 -32 16 -76 18 -500 17 -260 0 -479 -5 -498 -10z"/>
<path d="M770 2109 c-20 -11 -47 -37 -60 -56 -24 -36 -25 -41 -25 -218 0 -177
1 -182 25 -218 13 -20 42 -45 62 -57 35 -20 50 -21 220 -18 175 3 185 4 217
27 59 43 71 84 71 266 0 147 -2 165 -22 205 -15 30 -37 53 -63 67 -37 21 -52
23 -215 23 -158 0 -178 -2 -210 -21z m340 -274 l0 -125 -130 0 -130 0 0 125 0
125 130 0 130 0 0 -125z"/>
<path d="M1500 1867 c-53 -27 -62 -96 -18 -137 21 -19 34 -20 438 -20 404 0
417 1 438 20 44 41 35 110 -18 137 -36 18 -804 18 -840 0z"/>
<path d="M812 1358 c-53 -12 -107 -63 -121 -115 -14 -49 -14 -297 -1 -345 14
-48 55 -97 97 -114 23 -10 81 -14 199 -14 160 0 169 1 210 25 72 42 84 81 84
271 0 146 -2 164 -22 204 -28 54 -62 80 -119 91 -58 11 -273 9 -327 -3z m298
-293 l0 -125 -130 0 -130 0 0 125 0 125 130 0 130 0 0 -125z"/>
<path d="M1479 1081 c-17 -18 -29 -40 -29 -56 0 -16 12 -38 29 -56 l29 -29
412 0 412 0 29 29 c38 38 38 74 0 112 l-29 29 -412 0 -412 0 -29 -29z"/>
<path d="M3173 2021 c-80 -38 -169 -128 -210 -212 -37 -75 -68 -214 -60 -271
9 -67 61 -101 117 -78 36 15 47 40 58 132 17 131 77 230 171 278 78 39 101
105 53 152 -31 31 -63 30 -129 -1z"/>
</g>
</svg>
