<svg version="1.0" xmlns="http://www.w3.org/2000/svg"
 width="512.000000pt" height="512.000000pt" viewBox="0 0 512.000000 512.000000"
 preserveAspectRatio="xMidYMid meet">
<g transform="translate(0.000000,512.000000) scale(0.100000,-0.100000)"
fill="#d3b6a9" stroke="none">
<path d="M3647 4453 l-409 -408 6 -62 c3 -35 3 -63 1 -63 -2 0 -31 16 -65 36
-33 19 -112 57 -174 84 -701 301 -1507 169 -2085 -340 -363 -320 -601 -788
-651 -1279 -58 -581 152 -1166 569 -1582 498 -496 1216 -691 1891 -513 294 77
575 228 809 434 465 410 716 1054 651 1668 -28 264 -119 556 -234 752 -20 34
-36 63 -36 65 0 2 28 2 63 -1 l62 -6 408 409 c433 435 434 436 388 482 -22 22
-30 23 -370 57 -140 13 -256 26 -258 27 -1 2 -14 117 -28 257 -34 346 -34 349
-56 371 -46 46 -47 45 -482 -388z m404 -56 l23 -228 -290 -290 c-159 -159
-292 -289 -295 -289 -4 0 -29 89 -57 198 l-49 197 320 322 c177 177 322 321
323 320 2 -1 13 -105 25 -230z m359 -347 c107 -11 201 -20 210 -20 8 0 -131
-146 -309 -324 l-323 -323 -196 49 c-108 27 -199 51 -201 54 -3 3 125 135 284
294 228 228 295 290 315 290 14 0 113 -9 220 -20z m-1851 -20 c225 -41 479
-142 667 -265 l81 -53 31 -123 31 -124 -604 -605 c-468 -468 -605 -611 -605
-629 0 -33 37 -71 69 -71 21 0 145 119 631 605 l605 605 95 -24 c52 -13 108
-27 123 -30 57 -13 214 -299 287 -521 65 -200 84 -327 84 -555 0 -114 -5 -228
-12 -275 -133 -812 -736 -1415 -1547 -1546 -103 -17 -426 -17 -530 -1 -1221
196 -1913 1486 -1389 2592 271 573 814 961 1454 1040 122 15 398 4 529 -20z"/>
<path d="M2090 3593 c-316 -34 -596 -169 -825 -398 -203 -203 -326 -433 -382
-712 -24 -121 -24 -385 0 -506 111 -555 538 -983 1094 -1094 122 -24 384 -24
506 0 338 68 635 253 840 525 260 346 342 792 221 1210 -42 147 -177 407 -224
432 -33 18 -67 11 -90 -17 -26 -34 -21 -57 29 -132 88 -130 161 -320 186 -488
59 -389 -67 -768 -349 -1049 -179 -179 -376 -286 -626 -340 -119 -25 -363 -26
-480 0 -251 54 -447 161 -626 340 -227 227 -345 494 -360 816 -16 347 109 667
360 916 152 151 284 234 481 300 354 118 745 67 1057 -138 59 -38 83 -49 102
-44 37 9 56 34 56 72 0 29 -7 39 -47 69 -74 54 -298 162 -395 189 -161 46
-373 66 -528 49z"/>
<path d="M2119 2581 c-151 -48 -259 -194 -259 -351 0 -112 66 -239 156 -301
96 -66 213 -84 322 -51 119 38 205 122 242 241 27 85 26 132 -3 159 -51 48
-110 13 -121 -71 -15 -116 -93 -192 -211 -204 -57 -6 -129 19 -174 60 -36 33
-71 115 -71 167 0 52 35 134 71 167 35 32 108 63 150 63 69 0 103 74 56 118
-29 27 -80 28 -158 3z"/>
</g>
</svg>
